<?xml version="1.0" encoding="utf-8"?>
<!-- Generator: Adobe Illustrator 28.3.0, SVG Export Plug-In . SVG Version: 6.00 Build 0)  -->
<svg version="1.1" id="Layer_1" xmlns="http://www.w3.org/2000/svg" xmlns:xlink="http://www.w3.org/1999/xlink" x="0px" y="0px"
	 viewBox="0 0 64 64" style="enable-background:new 0 0 64 64;" xml:space="preserve">
<style type="text/css">
	.st0{fill:#FFFFFF;}
	.st1{fill-rule:evenodd;clip-rule:evenodd;fill:#1E88E5;}
	.st2{fill:#FFB300;}
</style>
<g>
	<path class="st0" d="M32,64L32,64C14.3,64,0,49.7,0,32v0C0,14.3,14.3,0,32,0h0c17.7,0,32,14.3,32,32v0C64,49.7,49.7,64,32,64z"/>
	<g>
		<path class="st1" d="M20.1,13C4.8,20.8,2.4,42.1,16.8,43.3c12.5,1,35.3-14,34.4-23.8c-1.7-4.3-4.5-5.5-8.2-5.3
			C24,45.5-4.7,32.3,20.1,13z"/>
		<path class="st1" d="M12.7,50.6c15.1,15.9,47.9-1,43.7-21.9c-3.9,7-11.6,12.8-17.6,16.1c-6.5,3.8-15.2,7-22.8,6.3
			C14.9,51.1,13.9,50.8,12.7,50.6z"/>
		<path class="st2" d="M29,61.2c9.8,2.7,20-2.1,24.3-10.8c-3.4,3.6-7.7,6.3-12.2,8.2C37.2,60.2,33.1,61.2,29,61.2z"/>
		<path class="st2" d="M32.1,10.4l-1.7,8.6h-0.2l-1,0.5l-0.5-8L24,12.8l-0.9,2.7l-0.9,0.3l-0.5-3.3L20.1,10l0.9-0.3l2.4,1.4l4.5-2.4
			l-5.1-6.2L23.8,2l6.8,5c4.6-2.2,7-0.9,7-0.9S37,8.7,32.1,10.4z"/>
	</g>
</g>
</svg>
