<?xml version="1.0" encoding="utf-8"?>
<!-- Generator: Adobe Illustrator 28.3.0, SVG Export Plug-In . SVG Version: 6.00 Build 0)  -->
<svg version="1.1" id="Layer_1" xmlns="http://www.w3.org/2000/svg" xmlns:xlink="http://www.w3.org/1999/xlink" x="0px" y="0px"
	 viewBox="0 0 117 38" style="enable-background:new 0 0 117 38;" xml:space="preserve">
<style type="text/css">
	.st0{fill:#1E88E5;}
	.st1{fill:#FFB300;}
	.st2{fill-rule:evenodd;clip-rule:evenodd;fill:#1E88E5;}
</style>
<g>
	<path class="st0" d="M46.3,30.4c-1.7,0-3.2-0.4-4.4-1.1s-2.2-1.8-2.9-3.1c-0.7-1.3-1.1-2.7-1.1-4.3s0.4-3.1,1.1-4.4
		c0.7-1.3,1.7-2.3,2.9-3c1.2-0.7,2.6-1.1,4.1-1.1c1.3,0,2.4,0.2,3.4,0.6c1,0.4,1.8,1,2.5,1.7c0.7,0.7,1.2,1.6,1.6,2.6
		c0.4,0.9,0.5,2,0.5,3.1c0,0.3,0,0.6-0.1,0.9c0,0.3-0.1,0.6-0.2,0.8H41.1v-3h10.4l-1.9,1.4c0.2-0.9,0.1-1.7-0.2-2.5
		c-0.3-0.7-0.7-1.3-1.3-1.7c-0.6-0.4-1.3-0.6-2.2-0.6c-0.8,0-1.5,0.2-2.2,0.6c-0.6,0.4-1.1,1-1.5,1.8c-0.3,0.8-0.4,1.7-0.4,2.8
		c-0.1,1,0,1.9,0.4,2.7c0.4,0.8,0.9,1.4,1.6,1.8c0.7,0.4,1.5,0.6,2.4,0.6s1.7-0.2,2.3-0.6s1.1-0.9,1.5-1.5l3.2,1.6
		c-0.3,0.8-0.8,1.5-1.5,2.1s-1.5,1.1-2.4,1.4C48.4,30.2,47.4,30.4,46.3,30.4z M57.6,30v-4.2h4V30H57.6z"/>
	<path class="st1" d="M70.8,30l-6.4-16.3h4.3l4.7,12.8h-1.7l4.7-12.8h4.3L74.2,30H70.8z M81.6,30V13.7h3.9V30H81.6z M81.6,11.8V7.6
		h3.9v4.2H81.6z M94.2,30.4c-1.7,0-3.3-0.4-4.6-1.2c-1.3-0.8-2.2-2-2.6-3.4l2.9-1.4c0.4,0.9,1,1.6,1.7,2.2c0.8,0.5,1.6,0.8,2.5,0.8
		c0.7,0,1.3-0.2,1.7-0.5s0.6-0.7,0.6-1.3c0-0.3-0.1-0.6-0.3-0.8c-0.2-0.2-0.4-0.4-0.7-0.5c-0.3-0.2-0.6-0.3-0.9-0.4l-2.7-0.8
		c-1.4-0.4-2.4-1-3.2-1.8c-0.7-0.8-1.1-1.8-1.1-2.9c0-1,0.2-1.9,0.8-2.6c0.5-0.8,1.2-1.4,2.1-1.8c0.9-0.4,2-0.6,3.2-0.6
		c1.5,0,2.9,0.4,4.1,1.1c1.2,0.7,2,1.8,2.5,3.1l-3,1.4c-0.3-0.7-0.8-1.3-1.4-1.8c-0.7-0.4-1.4-0.7-2.2-0.7c-0.7,0-1.2,0.1-1.6,0.5
		c-0.4,0.3-0.6,0.7-0.6,1.2c0,0.3,0.1,0.6,0.2,0.8c0.2,0.2,0.4,0.4,0.7,0.5c0.3,0.1,0.6,0.3,1,0.4l2.6,0.8c1.3,0.4,2.4,1,3.1,1.8
		s1.1,1.8,1.1,2.9c0,1-0.3,1.9-0.8,2.6s-1.2,1.3-2.2,1.7S95.4,30.4,94.2,30.4z M107.1,30.4c-1.1,0-2.1-0.2-3-0.6
		c-0.8-0.4-1.5-0.9-1.9-1.6c-0.5-0.7-0.7-1.6-0.7-2.5s0.2-1.7,0.6-2.4c0.4-0.7,1-1.3,1.9-1.8c0.8-0.5,1.9-0.8,3.2-1l5.3-0.9v3
		l-4.6,0.8c-0.8,0.1-1.4,0.4-1.7,0.8s-0.6,0.8-0.6,1.4s0.2,1,0.6,1.4c0.4,0.3,1,0.5,1.6,0.5c0.8,0,1.5-0.2,2.2-0.5
		c0.6-0.4,1.1-0.8,1.5-1.5c0.4-0.6,0.5-1.3,0.5-2v-4.2c0-0.7-0.3-1.3-0.8-1.7c-0.5-0.5-1.3-0.7-2.2-0.7c-0.8,0-1.6,0.2-2.2,0.7
		c-0.6,0.4-1.1,1-1.4,1.8l-3.2-1.6c0.3-0.9,0.8-1.6,1.5-2.2c0.7-0.6,1.5-1.1,2.5-1.5c0.9-0.4,2-0.5,3.1-0.5c1.3,0,2.5,0.2,3.5,0.8
		c1,0.5,1.8,1.2,2.4,2c0.6,0.9,0.9,1.9,0.9,3V30h-3.7v-2.8l0.8-0.1c-0.4,0.7-0.9,1.3-1.5,1.8s-1.2,0.8-2,1.1
		C108.9,30.2,108,30.4,107.1,30.4z"/>
</g>
<g>
	<path class="st2" d="M9.2,7.9c-8.9,4.6-10.3,17-1.9,17.7c7.3,0.6,20.6-8.2,20.1-13.9c-1-2.5-2.6-3.2-4.8-3.1
		C11.5,26.9-5.3,19.2,9.2,7.9z"/>
	<path class="st2" d="M4.9,29.9c8.8,9.3,28-0.6,25.5-12.8c-2.3,4.1-6.8,7.5-10.3,9.4c-3.8,2.2-8.9,4.1-13.3,3.7
		C6.2,30.2,5.6,30,4.9,29.9z"/>
	<path class="st1" d="M14.4,36.1c5.7,1.6,11.7-1.2,14.2-6.3c-2,2.1-4.5,3.7-7.1,4.8C19.2,35.5,16.8,36.1,14.4,36.1z"/>
	<path class="st1" d="M16.2,6.4l-1,5h-0.1l-0.6,0.3L14.2,7l-2.7,0.8L11,9.4l-0.5,0.2l-0.3-1.9l-1-1.5L9.7,6l1.4,0.8l2.6-1.4l-3-3.6
		l0.7-0.3l4,2.9c2.7-1.3,4.1-0.5,4.1-0.5S19.1,5.4,16.2,6.4z"/>
</g>
</svg>
