<?xml version="1.0" encoding="utf-8"?>
<!-- Generator: Adobe Illustrator 26.1.0, SVG Export Plug-In . SVG Version: 6.00 Build 0)  -->
<svg version="1.1" id="Layer_1" xmlns="http://www.w3.org/2000/svg" xmlns:xlink="http://www.w3.org/1999/xlink" x="0px" y="0px"
	 viewBox="0 0 512 512" style="enable-background:new 0 0 512 512;" xml:space="preserve">
<g>
	<path d="M512.1,32c-9.9,38.4-34.6,67.3-61.3,94.8c-15.2,15.7-30.8,31-46.3,46.3c-2.3,2.3-3,4.4-2.3,7.5c1.8,7.1,3.3,14.2,4.9,21.3
		c20.7-4.9,40.7,6.7,45.1,25.8c2.3,9.9-0.5,18.5-7.4,25.7c-6.1,6.4-12.3,12.7-18.7,18.7c-2.4,2.3-2.9,4.3-2.1,7.4
		c1.7,6.4,2.9,12.9,4.5,19.8c6.7-4.5,13.5-6.5,21.1-5.5c16.9,2.1,33,22.9,29.3,39c-1.2,5.2-4.4,10.5-7.9,14.6
		c-7.4,8.4-15.7,15.8-23.4,23.9c-1.4,1.5-2.2,4.4-1.8,6.4c4.4,21,9,42,13.6,62.9c1.5,6.8-0.3,12.5-5,17.4c-3.9,4.1-8,8-12,12
		c-11.2,11.1-23.9,9.5-31.6-4.2c-24.9-44.2-49.8-88.5-74.7-132.7c-10.8-19.3-21.7-38.5-32.8-58.4c-1.6,1.4-2.9,2.6-4.1,3.8
		c-26.5,26.2-53,52.5-79.7,78.6c-6.9,6.8-14.3,13-21.7,19.2c-2.3,2-3.3,3.8-3,7.2c3.8,32.7,7.4,65.5,11.1,98.3
		c0.7,6.2-0.9,11.5-5.4,15.9c-3,2.9-5.9,5.9-8.9,8.8c-9,8.7-20.7,6.8-26.4-4.4c-11.8-23.5-23.5-47-35.3-70.5
		c-0.8-1.6-1.7-3.1-2.6-4.7c-8.3,3.7-16.3,7.3-24.3,10.8c-9.1,3.9-17.7,3.4-24.9-3.8c-7.2-7.2-7.7-15.9-3.7-24.9
		c3.5-7.9,7-15.8,10.8-24.2c-1.3-0.7-2.8-1.6-4.4-2.4c-23.5-11.8-47-23.5-70.5-35.3c-8.5-4.3-12.9-12.1-9.1-19.4
		c3.1-6,8.6-10.8,13.1-16c5.3-6,12-5.8,19.3-5c31.9,3.8,63.9,7.2,95.8,10.6c1.5,0.2,3.8-0.4,4.7-1.5c31.5-37,67.2-69.9,101.1-104.5
		c0.6-0.6,1.1-1.2,2-2.2c-2.1-1.2-3.9-2.3-5.7-3.3c-61.5-34.6-123-69.2-184.5-103.7c-6.6-3.7-11.6-8.3-12.1-16.4
		c-0.3-5.3,1.3-9.9,5-13.6c4.8-4.9,9.6-9.8,14.5-14.5c4.8-4.6,10.4-6.2,17-4.7c20.9,4.7,41.9,9.3,62.9,13.6c2,0.4,5-0.4,6.4-1.8
		c8-7.5,15.6-15.5,23.4-23.2c12.3-12.1,28.4-12,40.9,0.1c6.7,6.5,13.6,13,13.2,23.1c-0.2,6.4-2.4,12.8-3.8,19.5
		c6.1,1.4,13.3,3.1,20.6,4.5c1.2,0.2,3.1-0.8,4.1-1.9c6.2-6,12.3-12.2,18.4-18.3c12.6-12.4,28.5-12.2,41.2-0.1
		c7.8,7.5,14.5,15.4,13.2,27.1c-0.3,3.1-1.2,6.1-1.9,9.7c7.9,1.7,15.8,3.6,23.8,5c1.4,0.3,3.6-1.3,4.8-2.5
		c20.7-20.3,40.9-41.1,62-60.9c17.3-16.2,36.5-30.1,58.4-39.6c6.7-2.9,13.8-4.7,20.7-7c4.3,0,8.7,0,13,0c10.1,3.1,16.5,9.6,19,20
		C512.1,24,512.1,28,512.1,32z M495,29.4c0.2-10.5-3.1-13.9-10.8-12.1c-8.3,1.9-16.7,4.7-24.3,8.5c-24.2,12.1-44.6,29.5-63.7,48.6
		c-67,67-134,134.1-201.1,201.1c-22.9,22.9-45,46.4-64.5,72.2c-16,21.2-30.7,43.1-40.3,68.1c-0.7,1.7-0.8,4.7,0.2,5.8
		c1,1,4.1,1.1,5.7,0.4c9.1-4.1,18.3-8,27-12.9c33.9-19.2,64-43.4,91.5-70.7c77.6-76.9,154.9-154.2,232-231.7
		c17.2-17.3,31.8-36.8,42.1-59.2C491.8,40.7,493.6,33.4,495,29.4z M386.9,189.9c-1.9,2.3-2.9,3.7-4.1,4.9
		c-21.1,21.1-42,42.2-63.3,63.1c-3.3,3.2-3.3,5.4-1.1,9.2c35.4,62.7,70.7,125.5,106,188.2c0.9,1.6,1.9,3,3.6,5.8
		c3.8-4.1,6.9-8.1,10.6-11.3c3.6-3.1,4.2-6.2,3.2-10.8c-15-67.7-29.8-135.4-44.7-203.1C393.8,221.2,390.6,206.4,386.9,189.9z
		 M51.5,84.4c1.8,1.2,3,2,4.2,2.7c63.5,35.7,127,71.4,190.4,107.2c3.1,1.8,4.7,1.4,7.1-1c21.4-21.6,43-43.1,64.6-64.7
		c1-1,1.9-2.1,3.1-3.5c-1.8-0.5-3-0.8-4.3-1.1c-43.5-9.6-87-19.2-130.5-28.7C148,86.8,109.8,78.5,71.7,70.1c-1.8-0.4-4.5-0.9-5.6,0
		C61.1,74.5,56.6,79.3,51.5,84.4z M94.1,369.7c8.6-12.4,16.8-24.1,25.1-35.9c-0.7-0.4-0.9-0.6-1.2-0.7c-27.6-3.1-55.2-5.8-82.7-9.5
		c-8.2-1.1-12.1,2.6-16.5,8.4C43.9,344.7,68.9,357.2,94.1,369.7z M178.7,392.6c-12.5,8.7-24.3,17-36.4,25.4
		c12.6,25.1,25.1,50.2,38.1,76.1c1.7-1.9,2.5-3.2,3.7-4.1c3.9-3,5.1-6.4,4.3-11.6c-1.9-12.8-2.9-25.8-4.4-38.7
		C182.3,424.3,180.5,408.8,178.7,392.6z M158.3,71.7c9.7,2.2,18.9,3.7,27.8,6.4c6.1,1.9,9.7-0.4,13.1-4.8c3.5-4.6,3.2-9.9-0.9-14.5
		c-8.4-9.3-13.4-11.3-19.2-7.7c-0.4,0.3-0.8,0.5-1.2,0.9C171.5,58.3,165.2,64.7,158.3,71.7z M440.2,352.9c6.9-6.6,14-12.8,20.5-19.7
		c3.1-3.3,2.9-8,0-11.6c-2.8-3.5-6-6.7-9.5-9.4c-3.4-2.6-7.8-2.7-11.2,0c-2.9,2.3-7.6,4.2-6.7,9
		C435.3,331.9,437.9,342.5,440.2,352.9z M418.8,255.4c5.7-6,11-10.9,15.5-16.5c3.2-4.1,2.1-9-2.3-13.4c-4.8-4.8-9.1-11.5-17.6-7.6
		c-1.3,0.6-3,3.1-2.7,4.3C413.7,232.9,416.2,243.6,418.8,255.4z M258.1,93.5C258,93.3,258.1,93.5,258.1,93.5
		c9.9,2.3,19.8,4.4,29.7,6.6c4.6,1,6.6-0.5,7.3-5.2c1.1-7.3-10-19.3-17.4-18.7c-1.7,0.1-3.9,0.6-5.1,1.8
		C267.7,82.9,263,88.2,258.1,93.5z"/>
</g>
</svg>
