<?xml version="1.0" encoding="utf-8"?>
<!-- Generator: Adobe Illustrator 26.1.0, SVG Export Plug-In . SVG Version: 6.00 Build 0)  -->
<svg version="1.1" id="Layer_1" xmlns="http://www.w3.org/2000/svg" xmlns:xlink="http://www.w3.org/1999/xlink" x="0px" y="0px"
	 viewBox="0 0 512 512" style="enable-background:new 0 0 512 512;" xml:space="preserve">
<g>
	<path d="M309.5,54.1c4.7,0,8.5-0.1,12.3,0c16.2,0.6,27.6,11.9,27.7,28.1c0.2,38.7,0.1,77.3,0,116c0,6.9-3.5,10.8-9.1,10.9
		c-5.9,0.1-9.2-3.9-9.2-11.2c0-37.3,0-74.7,0-112c0-10.9-2.6-13.5-13.5-13.5c-91.4,0-182.9,0-274.3,0c-11.2,0-13.8,2.6-13.8,13.8
		c0,131.2,0,262.5,0,393.7c0,11.3,2.5,13.8,13.7,13.8c68,0,136,0,204,0c1.5,0,3,0,4.6,0c6.6,0.1,10.8,3.7,10.8,9.2
		c-0.1,5.5-4.2,9-10.9,9c-70.9,0-141.7,0.1-212.6,0c-16.6,0-27.8-12.2-27.8-29.7c0-115.8,0-231.6,0-347.5c0-16.4,0-32.8,0-49.1
		c0-18.6,7.3-27.5,25.4-31.5C89,42.4,141.1,30.6,193.2,18.8c26.7-6,53.4-12.2,80.2-18c19.2-4.2,35.5,8.9,36.1,28.7
		C309.7,37.4,309.5,45.4,309.5,54.1z M126.3,52.8c0,0.3,0.1,0.6,0.1,1c54.7,0,109.4,0,164.8,0c0-7.7,0.1-15.1,0-22.4
		c-0.1-10.1-5.8-14.5-15.6-12.3c-26.3,5.9-52.6,11.8-78.9,17.8C173.2,42.1,149.7,47.4,126.3,52.8z"/>
	<path d="M180.2,125.5c60.8,0.1,110.1,49.2,110,109.4c-0.2,61.2-49.5,110.3-110.7,110c-60.3-0.3-109-49.9-108.7-110.7
		C71,174.5,120.4,125.4,180.2,125.5z M171.4,225.9c0-25.7,0-50.8,0-75.9c0-1.1-0.1-2.2-0.2-3.3c-19.9,5.3-36.6,49.1-35.7,79.2
		C147.2,225.9,158.9,225.9,171.4,225.9z M134.7,244.7c0.4,4.4,0.7,8.4,1.3,12.3c2.5,18.6,7.3,36.5,18,52.2c4.3,6.3,9.3,11.8,17,15.1
		c0-26.9,0-53.1,0-79.7C159,244.7,147.3,244.7,134.7,244.7z M190.1,144.7c0,28.4,0,54.7,0,81.1c12.1,0,23.8,0,36.1,0
		c-2.2-25.4-6.8-49.6-23.3-69.8C199.6,152,195.1,149.1,190.1,144.7z M189.9,323.8c21-7,36-50.2,35.6-79c-11.9,0-23.7,0-35.6,0
		C189.9,271.4,189.9,297.6,189.9,323.8z M134,157c-22.3,10.1-44.5,44.7-43.8,68.8c8.6,0,17.3,0,25.2,0c2.1-12,3.3-23.8,6.4-35.1
		C124.9,179.2,129.9,168.2,134,157z M226.6,156.2c4.4,11.9,9.2,22.7,12.3,34c3.1,11.5,4.5,23.4,6.6,35.5c8,0,16.7,0,26,0
		C267.3,195.3,252.6,172.5,226.6,156.2z M245.5,244.7c-2.2,12.2-3.5,24.1-6.7,35.6c-3.1,11.4-8,22.3-12,33.1
		c22.1-10,44.5-44.7,43.9-68.7C262.3,244.7,253.8,244.7,245.5,244.7z M134.5,313.5c-11.3-21.7-17.1-44.6-18.2-68.7
		c-9.2,0-17.8,0-26.9,0C93.6,275.2,108.5,298,134.5,313.5z"/>
	<path d="M299.4,475.6c-1.8-0.1-2.9-0.2-4-0.2c-12.3-0.2-14.3-2.2-14.3-14.3c0-3.6,0.2-7.3,0-10.9c-1.6-24.3,5.7-31.2,30.1-29.9
		c11,0.6,22.1,0.1,33.9,0.1c0-4.8,0-9.2,0-13.7c0-14.6,3.9-19.7,18.3-23.5c0-22,0.2-44.1-0.3-66.1c-0.1-3-3.5-6.5-6.2-8.8
		c-15.8-13.4-23.2-30.2-20.4-50.6c3-21.3,15.1-36.3,35.3-44c25-9.6,53.3,0.9,66.6,24.2c13.3,23.3,8.1,52.6-13.1,69.6
		c-5.4,4.3-7.3,8.9-7.2,15.5c0.3,20.2,0.1,40.3,0.1,60.4c14.2,3.7,18.3,9.1,18.3,23.6c0,4.3,0,8.7,0,13.6c14.2,0,27.9,0,41.5,0
		c15.9,0,22.5,6.7,22.5,22.6c0,6.7,0,13.3,0,20c0,9.3-3,12.2-12.3,12.3c-1.7,0-3.4,0-5.9,0c0,5.7,0,11.1,0,16.6
		c-0.1,12.5-7.5,20-19.9,20c-47.8,0-95.6,0-143.5,0c-12,0-19.4-7.6-19.5-19.7C299.4,486.9,299.4,481.6,299.4,475.6z M400,383.8
		c0-1.9,0-3.4,0-4.9c0-18.1,0.5-36.2-0.2-54.3c-0.5-13.5,3.5-23.7,14.6-32c12.2-9.2,16-25.9,10.6-40.3
		c-5.2-14.1-18.8-23.7-33.8-23.8c-15.6-0.2-29.4,9.5-34.7,24.2c-5.3,14.7-1.1,31.3,11.3,40.7c10.1,7.6,14.2,17,13.9,29.5
		c-0.5,18.3-0.1,36.6-0.1,54.9c0,2,0,4,0,6.1C388,383.8,393.5,383.8,400,383.8z M482,439.2c-61.1,0-121.7,0-182.2,0
		c0,6.2,0,11.9,0,17.6c60.9,0,121.4,0,182.2,0C482,450.9,482,445.3,482,439.2z M463.7,475.8c-48.9,0-97.3,0-145.6,0
		c0,6.2,0,12,0,17.6c48.7,0,97,0,145.6,0C463.7,487.5,463.7,481.8,463.7,475.8z M363.6,420.1c18.5,0,36.4,0,54.3,0
		c0-6.1,0-11.7,0-17.5c-18.2,0-36.2,0-54.3,0C363.6,408.5,363.6,414.1,363.6,420.1z"/>
	<path d="M161.7,429.7c29.1,0,58.3,0,87.4,0c1.7,0,3.4-0.1,5.1,0.1c5,0.6,8.5,4.4,8.5,9.1c-0.1,4.7-3.6,8.5-8.7,9
		c-1.5,0.2-3,0.1-4.6,0.1c-58.3,0-116.6,0-174.9,0c-1.9,0-3.9,0.2-5.7-0.2c-4.6-1.2-7.3-4.1-7.2-9c0.1-4.8,2.8-7.8,7.4-8.8
		c1.8-0.4,3.8-0.2,5.7-0.2C103.8,429.7,132.7,429.7,161.7,429.7z"/>
	<path d="M180.6,411.4c-23.1,0-46.1,0-69.2,0c-1.5,0-3.1,0.1-4.6-0.1c-5.1-0.5-8.5-4.2-8.6-9c-0.1-4.8,3.4-8.6,8.4-9.1
		c1.7-0.2,3.4-0.1,5.1-0.1c45.7,0,91.4,0,137.2,0c1.1,0,2.3,0,3.4,0c6.3,0.2,10.3,3.7,10.4,9c0.1,5.3-4,9.1-10.2,9.2
		c-8.2,0.1-16.4,0-24.6,0C212.2,411.4,196.4,411.4,180.6,411.4z"/>
</g>
</svg>
