<?xml version="1.0" encoding="utf-8"?>
<!-- Generator: Adobe Illustrator 26.1.0, SVG Export Plug-In . SVG Version: 6.00 Build 0)  -->
<svg version="1.1" id="Layer_1" xmlns="http://www.w3.org/2000/svg" xmlns:xlink="http://www.w3.org/1999/xlink" x="0px" y="0px"
	 viewBox="0 0 512 512" style="enable-background:new 0 0 512 512;" xml:space="preserve">
<g>
	<path d="M321.1,0c5.1,2,10.1,4.1,15.2,5.9C389,24.6,441.7,43.2,494.4,61.8c8.9,3.2,10.6,6.7,7.5,15.5
		C461,193,420.1,308.8,379.2,424.6c-3.1,8.9-6.6,10.5-15.6,7.3c-19.9-7-39.8-14.1-59.8-21.1c-1.4-0.5-2.8-0.9-5-1.6
		c0,2.2,0,3.9,0,5.7c0,22.5,0,45,0,67.5c0,19.5-10.1,29.7-29.5,29.7c-77.5,0-155,0-232.5,0c-14.1,0-24-6.9-27.2-18.9
		c-0.8-3.2-1-6.6-1-9.9c0-117.2,0-234.3,0-351.5c0-8.6,1.6-10.6,10.1-12.8C84.9,101.4,151,83.9,217.1,66.5c20.4-5.4,35,6,35,27.2
		c0,8.3,0,16.6,0,25.7c5.5,0,10.6,0.3,15.6-0.2c1.3-0.1,2.8-2.4,3.4-4c9.4-26.2,18.6-52.3,27.9-78.5c3.3-9.4,6.4-18.9,10.2-28.2
		c1.3-3.2,4.6-5.7,6.9-8.5C317.8,0,319.4,0,321.1,0z M25.8,136.6c0,2.7,0,4.5,0,6.3c0,113,0,225.9,0,338.9
		c0,10.9,2.3,13.2,13.1,13.2c76.5,0,153,0,229.4,0c11.1,0,13.4-2.3,13.4-13.5c0-110.5,0-220.9,0-331.4c0-11.3-2.2-13.4-13.5-13.4
		c-78.6,0-157.3,0-235.9,0C30.4,136.6,28.4,136.6,25.8,136.6z M298.8,198.1c8.7-3,16.6-5.5,24.3-8.6c2.1-0.8,4.2-3.1,5-5.2
		c2.9-7.2,5-14.8,8.1-22c1.3-3.1,4-6.2,6.9-7.9c5.8-3.5,12.2-6.1,18.4-9c6.4-2.9,10.4-1.5,13.5,4.7c3,5.9,5.7,12,8.7,18
		c1.9,3.8,2,7.5,0.5,11.5c-2.8,7.3-5.4,14.7-7.7,22.1c-0.6,2-0.3,5,0.8,6.8c7.5,12.6,15.6,24.8,23,37.5c1.7,2.8,2.7,7.1,1.9,10.2
		c-2,7.9-5,15.5-8,23.1c-2.5,6.3-8.3,7.9-13.7,3.8c-2.8-2.1-5.3-4.5-8-6.8c-5.6-4.8-11.2-9.7-17.1-14.8c-1.9,5.4-3.2,10.4-5.4,14.8
		c-6.1,12-6.5,23.3,1.5,34.9c1.7,2.5,1.4,7.1,0.6,10.4c-1.8,6.9-4.5,13.5-7,20.3c-3.1,8.4-9.7,10-16.1,3.6
		c-6.1-6.1-12.3-12.2-18-18.8c-3.5-4.1-7.1-4.7-12.2-2.8c0,21.6,0,43.2,0.1,64.9c0,1.1,1.4,2.7,2.4,3.1c21,7.5,42,14.9,63.4,22.4
		C404.6,301.5,444.3,189,484.2,76.3c-53.8-19-107.1-37.8-160.3-56.6c-0.5,0.7-1,1-1.1,1.5c-11.8,33.2-23.6,66.5-35.2,99.7
		c-0.4,1.1,0.1,3.2,0.9,3.8c8.8,6.7,10.6,16,10.5,26.2C298.7,166.4,298.8,181.8,298.8,198.1z M88,118.2c0.1,0.3,0.2,0.6,0.2,0.9
		c48.8,0,97.7,0,146.8,0c0-9.8,0.3-19.3-0.1-28.7c-0.2-5.8-5-9.1-10.8-8.1c-1.5,0.3-2.9,0.7-4.4,1.1c-31.3,8.3-62.7,16.5-94,24.8
		C113.2,111.5,100.6,114.8,88,118.2z M362.5,164.4c-7.1,1.8-11.4,5.7-14,13.4c-11.7,34.8-24.3,69.4-36.4,104.1
		c-1.9,5.4-4.6,9.4-10.1,11.4c-1.3,0.5-2.8,2-3,3.3c-0.4,3-0.1,6.2-0.1,9.4c1.9-0.1,3.1,0,4.2-0.4c6.9-1.9,12.2,0.1,16.8,5.6
		c3.9,4.6,8.7,8.5,13.1,12.8c2.5-3.8,3.1-7.6,0.4-11.9c-1.9-3.1-3.1-6.7-4.8-9.8c-2.5-4.5-2.6-8.8-0.8-13.8
		c12.5-34.9,24.6-70,37.4-104.8C367.8,176.1,367.2,170.3,362.5,164.4z M368,226c-2.1,6-3.9,10.6-5.4,15.4c-0.4,1.2-0.2,3.2,0.6,3.9
		c6.1,5.6,12.3,11,19.5,17.2c0.8-4,2.7-7.7,1.6-9.7C379.5,244,373.9,235.6,368,226z M319.6,209c-6.8,2.3-12.4,4.2-18,6.2
		c-1.1,0.4-2.5,1.5-2.6,2.4c-0.3,3.2-0.1,6.4-0.1,9.4c4.5,0,8.1,0.2,11.7-0.1c1.2-0.1,2.9-1.1,3.3-2.1
		C315.9,220,317.5,215,319.6,209z M299.1,264.5c0.3,0.1,0.6,0.1,0.9,0.2c2.3-6.6,4.6-13.2,7.2-20.4c-3.1,0.2-5.5,0.4-8.1,0.6
		C299.1,251.7,299.1,258.1,299.1,264.5z"/>
	<path d="M149.9,341.2c-47,0.1-85-37.6-85.5-84.9c-0.5-46.6,37.8-85.2,84.9-85.5c47.1-0.3,85.7,38.1,85.7,85.2
		C235.1,303,197,341.1,149.9,341.2z M130.4,236.6c0,13.4,0,25.8,0,38.7c13.2,0,25.7,0,38.7,0c0-13.2,0-25.7,0-38.7
		C155.9,236.6,143.5,236.6,130.4,236.6z M112.9,238.9c-9.6,2.1-19,4-28.3,6.3c-1,0.2-2.3,2-2.4,3c-0.3,5.1-0.3,10.3,0,15.4
		c0.1,1.2,1.5,3,2.7,3.3c9.2,2.2,18.4,4.1,28,6.2C112.9,261.6,112.9,250.5,112.9,238.9z M186.6,238.9c0,11.6,0,22.6,0,34.1
		c5.9-1.3,11.6-2.4,17.3-3.7c15.5-3.5,15.5-3.7,13.5-19.6c-0.1-0.7,0.1-1.5-0.2-2c-0.6-1-1.4-2.4-2.3-2.6
		C205.6,243,196.2,241,186.6,238.9z M166.3,219c-0.1-1.4,0-2.3-0.2-3.1c-1.2-5.8-2.5-11.7-3.7-17.5c-2.4-10.8-2.4-10.8-13.4-10.6
		c-9.5,0.2-9.5,0.2-11.5,9.3c-1.6,7.2-3,14.4-4.6,21.9C144.4,219,155.1,219,166.3,219z M132.9,293c1.2,5.9,2.2,11.4,3.4,16.9
		c3.4,15.3,3.5,15.4,19.5,14c0.8-0.1,1.8,0,2.4-0.3c0.9-0.5,2.1-1.3,2.3-2.1c2.1-9.3,4.1-18.7,6.2-28.4
		C155.2,293,144.5,293,132.9,293z M120.4,317.4c-1.5-7.4-3.2-14-3.9-20.7c-0.5-4.8-2.3-6.8-7.2-7.4c-6.7-0.8-13.4-2.4-21.1-3.8
		C96,299.8,106,310.1,120.4,317.4z M211.2,285.5c-9,1.7-17,3.1-25,4.7c-0.9,0.2-2,1.3-2.1,2.2c-1.7,8.1-3.2,16.2-4.9,25
		C193.4,310.1,203.6,299.9,211.2,285.5z M179.2,194.6c1.7,8.7,3.2,16.6,4.8,24.6c0.2,0.9,0.8,2.2,1.4,2.3c8.3,1.7,16.6,3.3,25.9,5
		C203.6,212.1,193.4,201.9,179.2,194.6z M88.3,226.5c9.2-1.7,17-3.1,24.7-4.7c1-0.2,2.3-1.5,2.5-2.5c1.7-7.9,3.1-15.9,4.8-24.6
		C106.1,201.9,96,212,88.3,226.5z"/>
	<path d="M81.7,426.3c0-5.5,0-10.6,0-16.2c45.4,0,90.6,0,136.1,0c0,5.2,0,10.5,0,16.2C172.6,426.3,127.4,426.3,81.7,426.3z"/>
	<path d="M98.9,460.5c0-5.4,0-10.8,0-16.4c34,0,67.8,0,101.8,0c0,5.5,0,10.7,0,16.4C166.9,460.5,133.1,460.5,98.9,460.5z"/>
	<path d="M123.9,375.7c0,5.6,0,10.8,0,16.5c-5.5,0-10.9,0-16.5,0c0-5.5,0-10.8,0-16.5C113,375.7,118.4,375.7,123.9,375.7z"/>
	<path d="M157.9,375.9c0,5.6,0,10.9,0,16.4c-5.5,0-10.8,0-16.4,0c0-5.5,0-10.7,0-16.4C146.8,375.9,152.2,375.9,157.9,375.9z"/>
	<path d="M192.1,375.8c0,5.7,0,10.9,0,16.4c-5.6,0-11,0-16.6,0c0-5.6,0-10.9,0-16.4C181.1,375.8,186.3,375.8,192.1,375.8z"/>
	<path d="M423.2,109.1c-2,5.6-3.7,10.6-5.7,16c-4.9-1.7-9.5-3.3-14.6-5.1c1.9-5.4,3.7-10.5,5.7-16
		C413.4,105.6,418.1,107.2,423.2,109.1z"/>
	<path d="M320.8,72.9c5.1,1.8,9.7,3.4,14.6,5.2c-2,5.6-3.8,10.7-5.7,16c-4.9-1.7-9.4-3.3-14.5-5.1C317.1,83.6,318.9,78.4,320.8,72.9
		z"/>
	<path d="M393.9,98.7c-1.9,5.4-3.6,10.3-5.6,16c-4.8-1.7-9.4-3.2-14.6-5c1.9-5.4,3.7-10.5,5.7-16.1
		C384.3,95.3,388.9,96.9,393.9,98.7z"/>
	<path d="M452.5,119.3c-2,5.7-3.8,10.6-5.7,16c-4.8-1.7-9.3-3.2-14.5-5.1c1.8-5.3,3.6-10.3,5.6-16
		C442.7,116,447.3,117.6,452.5,119.3z"/>
	<path d="M350.1,83.2c5.2,1.9,9.7,3.5,14.5,5.3c-1.9,5.4-3.6,10.3-5.6,16c-4.8-1.7-9.4-3.3-14.6-5.1
		C346.4,93.7,348.2,88.6,350.1,83.2z"/>
</g>
</svg>
