<?xml version="1.0" encoding="utf-8"?>
<!-- Generator: Adobe Illustrator 26.1.0, SVG Export Plug-In . SVG Version: 6.00 Build 0)  -->
<svg version="1.1" id="Layer_1" xmlns="http://www.w3.org/2000/svg" xmlns:xlink="http://www.w3.org/1999/xlink" x="0px" y="0px"
	 viewBox="0 0 512 512" style="enable-background:new 0 0 512 512;" xml:space="preserve">
<g>
	<path d="M114,0c3.1,2.7,6,5.4,4.2,10.1c-1.8,4.6-5.7,5-9.9,4.9c-13.7-0.1-27.3-0.1-41,0c-11.2,0-18.1,6.9-18.1,18.1
		c0,68,0,136,0,204c0,8,3.2,11.2,11.2,11.5c1.3,0,2.7,0,4,0c127.8,0,255.6,0,383.4,0c2.2,0,4.3,0.1,6.5-0.2c5.1-0.6,8.1-3.7,8.6-8.8
		c0.1-1.5,0.1-3,0.1-4.5c0-66.5,0-133,0-199.5c0-14.6-6.1-20.6-20.7-20.6c-96.5,0-193,0-289.4,0c-1.2,0-2.3-0.1-3.5,0
		c-4.3,0.3-8.2-0.5-9.8-5.1c-1.7-4.6,1.1-7.5,4.6-9.9c102.7,0,205.3,0,308,0c2.1,0.8,4.3,1.6,6.4,2.5c13.2,6.1,19.5,16.7,19.5,31
		c0,42.8,0,85.7,0,128.5c0,24.7,0,49.3,0,74c0,6.5-1.1,12.5-5,18c-0.7,0.9-0.6,3.2,0.1,4.2c3.4,5,4.9,10.5,4.9,16.5
		c0,37.5,0,75,0,112.5c0,2-0.1,4.1-0.8,5.9c-1.3,3.3-4.1,4.7-7.6,4.3c-3.6-0.4-5.7-2.5-6.3-6.1c-0.3-1.6-0.2-3.3-0.2-5
		c0-36.7,0-73.3,0-110c0-9.9-2.9-12.8-12.8-12.8c-129.3,0-258.6,0-387.9,0c-10.2,0-13,2.8-13,13.2c0,66.8,0,133.6,0,200.5
		c0,13.6,6.3,19.9,19.8,19.9c124.6,0,249.3,0,373.9,0c13.6,0,19.9-6.3,19.9-19.8c0-16.8,0-33.7,0-50.5c0-5.9,2.7-9.4,7.2-9.5
		c4.7-0.1,7.7,3.5,7.7,9.6c0,17.5,0.1,35,0,52.5c-0.2,19.1-13.8,32.7-33,32.7c-126,0-252,0-377.9,0c-18.8,0-32.7-13.6-32.7-32.4
		c-0.1-68.7-0.1-137.3,0.1-206c0-4.9,2.3-9.9,4.3-14.5c1.1-2.4,1.3-3.6,0.1-6.1c-2.1-4.6-4.4-9.6-4.4-14.5
		c-0.3-68.7-0.2-137.3-0.2-206c0-15.4,8.9-26.9,23.7-31.5c0.7-0.2,1.4-0.7,2.1-1C78,0,96,0,114,0z"/>
	<path d="M72,380.2c0-27.5,0-55,0-82.5c0-11.6,5.1-16.7,16.7-16.7c39.5,0,79,0,118.5,0c11.3,0,16.5,5.2,16.5,16.5
		c0,55.2,0,110.3,0,165.5c0,11.3-5.2,16.4-16.6,16.4c-39.7,0-79.3,0-119,0c-11.1,0-16.2-5.2-16.2-16.2C72,435.5,72,407.9,72,380.2z
		 M87.4,296.1c0,56.3,0,112.2,0,168.1c40.6,0,80.8,0,121.1,0c0-56.2,0-112.1,0-168.1C167.9,296.1,127.8,296.1,87.4,296.1z"/>
	<path d="M346.1,311.8c-27,0-53.9,0-80.9,0c-1.3,0-2.7,0.1-4,0c-5-0.3-8.2-3.4-8.2-7.7c0.1-4.3,3.3-7.2,8.4-7.3c14-0.1,28,0,42,0
		c41.6,0,83.2,0,124.9,0c1.8,0,4.1-0.6,5.4,0.3c2.4,1.6,5.5,4,5.8,6.3c0.3,2.3-2.2,5.5-4.2,7.4c-1.3,1.2-4.1,1-6.2,1
		C401.4,311.8,373.8,311.8,346.1,311.8z"/>
	<path d="M322.5,410.9c20,0,39.9,0,59.9,0c5.2,0,8.2,2.2,8.7,6.3c0.6,4.7-2.4,8.2-7.6,8.5c-4.3,0.2-8.7,0.1-13,0.1
		c-35.1,0-70.2,0-105.4,0c-1.5,0-3,0.1-4.5-0.1c-4.6-0.4-7.7-3.6-7.6-7.7c0.1-4.1,3.3-7.1,8-7.2c17.5-0.1,35,0,52.4,0
		C316.5,410.9,319.5,410.9,322.5,410.9z"/>
	<path d="M322.1,448.9c19.8,0,39.6,0,59.4,0c6.5,0,9.7,2.5,9.6,7.5c0,4.9-3.4,7.5-9.7,7.5c-39.4,0-78.9,0-118.3,0
		c-0.8,0-1.7,0-2.5-0.1c-4.6-0.5-7.6-3.7-7.5-7.8c0.2-4.1,3.4-7.1,8.1-7.1C281.5,448.8,301.8,448.9,322.1,448.9z"/>
	<path d="M285.1,334.8c7.7,0,15.3-0.1,23,0c5.4,0.1,8.8,3,8.8,7.4c0,4.4-3.5,7.5-8.8,7.5c-15.3,0.1-30.6,0.1-45.9,0
		c-5.7,0-9.2-3.2-9-7.8c0.2-4.4,3.5-7.1,9-7.1C269.8,334.8,277.4,334.8,285.1,334.8z"/>
	<path d="M408.5,334.8c7.7,0,15.3-0.1,23,0c5.1,0.1,8.3,2.9,8.5,7.2c0.1,4.5-3.2,7.7-8.5,7.8c-15.5,0.1-30.9,0.1-46.4,0
		c-5.3,0-8.8-3.2-8.8-7.6c0-4.4,3.4-7.3,8.8-7.4C392.9,334.8,400.7,334.8,408.5,334.8z"/>
	<path d="M285,372.8c7.7,0,15.3-0.1,23,0c5.4,0.1,8.8,3,8.8,7.4c0,4.4-3.4,7.5-8.8,7.6c-15.5,0.1-30.9,0.1-46.4,0
		c-5.3,0-8.7-3.3-8.5-7.7c0.1-4.2,3.4-7.1,8.5-7.2C269.4,372.8,277.2,372.8,285,372.8z"/>
	<path d="M408.3,372.8c7.7,0,15.3-0.1,23,0c5.4,0.1,8.7,3.1,8.7,7.5c-0.1,4.4-3.4,7.4-8.8,7.4c-15.3,0.1-30.6,0.1-45.9,0
		c-5.4,0-8.8-3-9-7.4c-0.1-4.6,3.4-7.5,9.1-7.6C393,372.8,400.7,372.8,408.3,372.8z"/>
	<path d="M337.8,176.8c0.3-1,0.7-2.6,1.3-4.1c10.9-28.6,21.9-57.2,32.7-85.8c1.8-4.7,4.3-8.3,9.7-8.7c4.6-0.3,7.9,2.7,10.2,8.7
		c10.8,28.5,21.6,56.9,32.1,85.5c1,2.8,1.3,6.8,0,9.4c-2.5,5.2-10.2,4.4-12.7-1.2c-2.1-4.7-3.9-9.6-5.5-14.4
		c-0.9-2.7-2.3-3.5-5.1-3.5c-12.5,0.1-25,0.1-37.5,0c-2.9,0-4.5,0.7-5.5,3.7c-1.6,4.9-3.5,9.7-5.5,14.4c-1.6,3.7-4.8,5.1-8.7,4.1
		C339.6,184,337.8,181.3,337.8,176.8z M398.4,147.5c-5.6-14.8-11-29-16.8-44.4c-5.9,15.5-11.3,29.8-16.8,44.4
		C376.2,147.5,386.9,147.5,398.4,147.5z"/>
	<path d="M275.6,185.1c-9.9-0.3-21.8-4.7-31.5-14.3c-4.3-4.2-4.8-8.4-1.6-11.8c3.1-3.3,7.7-3,11.8,1c7.8,7.5,17.1,10.9,27.8,10
		c3.7-0.3,7.6-1.6,10.7-3.6c9.8-6.2,9.9-17,0-22.9c-6.2-3.7-13.3-5.9-20-8.8c-3.5-1.5-7-3-10.6-4.4c-10.2-4-15.8-11.4-16.4-22.3
		c-0.6-11.3,4.6-19.6,14.2-25c16.8-9.5,37.3-3.3,49.5,6.7c3.3,2.7,3.6,7.3,0.9,10.3c-3,3.3-6.4,3.2-10.4,1.2
		c-5.9-2.9-11.9-6-18.3-7.4c-4.2-0.9-9.3,0.3-13.5,1.8c-4.9,1.7-7.6,5.8-7.5,11.3c0.1,5.2,3.2,8,7.8,9.8c7.9,3,16,5.8,23.6,9.6
		c5.7,2.8,11.5,6.3,15.9,10.8c10.5,10.8,9.3,27.1-1.9,38C299.1,181.7,289.6,185.3,275.6,185.1z"/>
	<path d="M127.5,158.5c5.3-16,10.4-31.1,15.4-46.2c3-9,6-18,9-27c1.9-5.7,5.4-7.9,9.9-6.5c4.4,1.4,6.1,5.5,4.3,11
		c-9.6,29.1-19.3,58.1-28.9,87.1c-1.6,4.7-4.2,8-9.5,8.1c-5.3,0.1-8.1-3-9.7-7.7c-10-29.1-20.2-58.1-30.2-87.2
		c-2.1-6.1-0.7-9.9,4.1-11.5c4.4-1.5,8,0.8,10,6.5c7.8,22.3,15.5,44.6,23.2,66.9C125.7,154,126.5,155.8,127.5,158.5z"/>
	<path d="M211.1,131.9c0,14.7,0,29.3,0,44c0,6-2.6,9.2-7.4,9.2c-4.7,0-7.6-3.2-7.6-9.1c0-29.5,0-59,0-88.4c0-5.8,3-9.3,7.5-9.3
		c4.6,0,7.4,3.4,7.5,9.3C211.2,102.3,211.1,117.1,211.1,131.9z"/>
	<path d="M199.3,386.5c0,10.7,0.1,21.3,0,32c-0.2,22.3-15.1,37.1-37.4,37.3c-9.8,0.1-19.7,0.2-29.5,0c-19.5-0.5-34.9-13.5-35.7-32.8
		c-1-25.1-1.1-50.4,0.4-75.4c1.4-23.8,22.6-41.7,46.4-42.7c20.8-0.9,37.6,5.9,48.9,23.9c5,8,7,16.8,6.9,26.2
		C199.3,365.5,199.3,376,199.3,386.5z M132.7,353.9c-3.8,4.1-7.4,9.7-12.5,13c-5.6,3.6-6.9,7.7-6.2,13.5c0.1,0.7,0,1.3,0.1,2
		c1.1,18.3,18.4,33.2,36.4,31.3c19.8-2,33.8-19.4,31-37.9c-8.8-2.8-17.6-4.7-25.7-8.3C147.6,363.8,140.1,358.4,132.7,353.9z
		 M184.1,359.9c1.4-15-2.9-27.2-15.6-34.7c-13.8-8.2-28.3-8-42.1,0.5c-10.1,6.2-16.2,18.9-14.3,29.2c2.2-2.7,4.3-4.8,5.8-7.3
		c2.3-4,3.8-8.6,6.4-12.4c1.6-2.3,4.6-5,7-5.1c2.4-0.1,5.2,2.6,7.3,4.7c3.1,3.1,5.3,7.3,8.7,10.1C157.6,353.8,170,358.2,184.1,359.9
		z M183.8,413.7c-24.3,20.4-48.2,20.2-72.1-0.2c-2.2,17.2,6.6,27.3,23.4,27.3c8.8,0,17.7,0,26.5,0
		C177.6,440.7,186.5,429.9,183.8,413.7z"/>
</g>
</svg>
